# xmcd
#
# Track frame offsets: 
#        150
#        15770
#        31900
#        45045
#        63022
#        78527
#        94600
#        111277
#        126802
#        140390
#
# Disc length: 2090 seconds
#
# Revision: 3
# Processed by: cddbd v1.5PL3 Copyright (c) Steve Scherf et al.
# Submitted via: ExactAudioCopy v0.95a3
#
DISCID=6908280a
DTITLE=James Bonamy - What I Live To Do
DYEAR=1996
DGENRE=Country
TTITLE0=She's Got A Mind Of Her Own
TTITLE1=I Don't Think I Will
TTITLE2=Dog On A Toolbox
TTITLE3=All I Do Is Love Her
TTITLE4=Brain In A Jar
TTITLE5=The Couple
TTITLE6=The Devil Goes Fishin'
TTITLE7=Amy Jane
TTITLE8=Heartbreak School
TTITLE9=Jimmy and Jesus
EXTD=
EXTT0=
EXTT1=
EXTT2=
EXTT3=
EXTT4=
EXTT5=
EXTT6=
EXTT7=
EXTT8=
EXTT9=
PLAYORDER=
